<svg width="24" height="24" viewBox="0 0 24 24" fill="none" xmlns="http://www.w3.org/2000/svg">
<path d="M5.00291 4.00043C4.80433 4.00049 4.61029 4.05977 4.44557 4.17072C4.28086 4.28166 4.15297 4.43922 4.07825 4.62324C4.00353 4.80727 3.98537 5.00941 4.0261 5.20381C4.06683 5.39821 4.1646 5.57605 4.3069 5.71459L10.5885 11.9979L4.3069 18.2811C4.2111 18.3731 4.13462 18.4833 4.08193 18.6053C4.02924 18.7272 4.0014 18.8584 4.00005 18.9913C3.9987 19.1241 4.02386 19.2559 4.07406 19.3789C4.12426 19.5019 4.19848 19.6136 4.29239 19.7075C4.3863 19.8015 4.498 19.8757 4.62096 19.9259C4.74391 19.9761 4.87565 20.0013 5.00845 19.9999C5.14125 19.9986 5.27244 19.9707 5.39435 19.918C5.51626 19.8653 5.62643 19.7888 5.71841 19.693L12 13.4097L18.2816 19.693C18.3736 19.7888 18.4837 19.8653 18.6056 19.918C18.7276 19.9708 18.8587 19.9986 18.9915 19.9999C19.1243 20.0013 19.2561 19.9761 19.379 19.9259C19.502 19.8757 19.6137 19.8015 19.7076 19.7075C19.8015 19.6136 19.8757 19.5019 19.9259 19.3789C19.9761 19.2559 20.0013 19.1241 19.9999 18.9913C19.9986 18.8584 19.9708 18.7272 19.9181 18.6053C19.8654 18.4833 19.7889 18.3731 19.6931 18.2811L13.4115 11.9979L19.6931 5.71459C19.8373 5.57434 19.9359 5.39378 19.9757 5.19656C20.0156 4.99935 19.995 4.79468 19.9166 4.60938C19.8382 4.42408 19.7057 4.26679 19.5364 4.15813C19.3671 4.04947 19.1689 3.9945 18.9678 4.00043C18.7085 4.00816 18.4624 4.11658 18.2816 4.3027L12 10.586L5.71841 4.3027C5.62539 4.20706 5.51414 4.13103 5.39125 4.07911C5.26836 4.02719 5.13631 4.00044 5.00291 4.00043Z" fill="#767676"/>
</svg>
