<svg width="80" height="81" viewBox="0 0 80 81" fill="none" xmlns="http://www.w3.org/2000/svg">
<rect x="6" y="6.5" width="68" height="68" rx="34" fill="#FEF0C7"/>
<rect x="6" y="6.5" width="68" height="68" rx="34" stroke="#FFFAEB" stroke-width="12"/>
<path d="M40 35.1668V40.5001M40 45.8334H40.0134M37.72 28.3134L26.4267 47.1668C26.1939 47.57 26.0707 48.0272 26.0693 48.4928C26.068 48.9584 26.1887 49.4163 26.4193 49.8208C26.6498 50.2253 26.9823 50.5624 27.3836 50.7986C27.7849 51.0347 28.2411 51.1617 28.7067 51.1668H51.2934C51.759 51.1617 52.2151 51.0347 52.6164 50.7986C53.0177 50.5624 53.3502 50.2253 53.5808 49.8208C53.8114 49.4163 53.932 48.9584 53.9307 48.4928C53.9294 48.0272 53.8062 47.57 53.5734 47.1668L42.28 28.3134C42.0423 27.9216 41.7077 27.5976 41.3083 27.3728C40.9089 27.1479 40.4583 27.0298 40 27.0298C39.5417 27.0298 39.0911 27.1479 38.6918 27.3728C38.2924 27.5976 37.9577 27.9216 37.72 28.3134Z" stroke="#DC6803" stroke-width="3" stroke-linecap="round" stroke-linejoin="round"/>
</svg>
