<svg width="80" height="80" viewBox="0 0 80 80" fill="none" xmlns="http://www.w3.org/2000/svg">
<rect x="6" y="6" width="68" height="68" rx="34" fill="#D1FADF"/>
<rect x="6" y="6" width="68" height="68" rx="34" stroke="#ECFDF3" stroke-width="12"/>
<path d="M53.3337 38.7735V40.0001C53.332 42.8754 52.401 45.673 50.6794 47.9759C48.9579 50.2788 46.538 51.9634 43.7808 52.7787C41.0236 53.5939 38.0767 53.496 35.3796 52.4996C32.6826 51.5032 30.3799 49.6616 28.8149 47.2496C27.25 44.8375 26.5067 41.9842 26.6959 39.1152C26.8851 36.2462 27.9966 33.5152 29.8647 31.3296C31.7328 29.1439 34.2574 27.6207 37.0619 26.987C39.8665 26.3534 42.8007 26.6433 45.427 27.8135M53.3337 29.3335L40.0003 42.6801L36.0003 38.6801" stroke="#039855" stroke-width="3" stroke-linecap="round" stroke-linejoin="round"/>
</svg>
